<?xml version="1.0" standalone="no"?>
<!DOCTYPE svg PUBLIC "-//W3C//DTD SVG 1.0//EN" "http://www.w3.org/TR/2001/REC-SVG-20010904/DTD/svg10.dtd">
<svg width="1100" height="1092" viewBox="-1450 -1313.4 2750 2730" xmlns="http://www.w3.org/2000/svg" xmlns:svg="http://www.w3.org/2000/svg">
<title>Hindu labyrinth with spiral center</title>
<g transform="scale(1,-1)">
<path fill="#ffffff" d="M-400,-1316.52
C-455.063,-1316.52,-509.533,-1305.15,-565,-1280.595
C-1043.76,-1071.31,-1350,-603.51,-1350,-86.6023
C-1350,631.368,-767.97,1213.4,-50,1213.4
C178.198,1213.4,402.375,1153.33,600,1039.23
C971.281,824.871,1200,428.719,1200,0
C1200,-477.145,917.313,-908.957,480,-1099.82
C454.767,-1110.83,427.531,-1116.52,400,-1116.52Z"/>
<circle cx="0" cy="-670" r="100" fill="#404040"/>
<g fill="none" stroke="#000000" stroke-width="100" stroke-linejoin="round" stroke-linecap="round">
<path d="M0,0
C-15.2019,8.77661,-32.4465,13.3975,-50,13.3975
C-105.228,13.3975,-150,-31.374,-150,-86.6023
C-150,-122.329,-130.94,-155.342,-100,-173.205
C-69.5962,-190.759,-35.1069,-200,0,-200
C110.457,-200,200,-110.457,200,0
C200,71.4529,161.88,137.479,100,173.205
C54.394,199.535,2.66064,213.397,-50,213.397
C-215.685,213.397,-350,79.083,-350,-86.6023
C-350,-193.782,-292.82,-292.82,-200,-346.41
C-139.192,-381.517,-70.2144,-400,0,-400
C220.914,-400,400,-220.914,400,0
C400,142.906,323.76,274.957,200,346.41
C123.99,390.294,37.7681,413.397,-50,413.397
C-326.142,413.397,-550,189.54,-550,-86.6023
C-550,-285.413,-432.214,-465.335,-245,-547.384
C-94.2295,-613.528,0,-757.466,0,-916.515
C0,-1137.43,-179.086,-1316.52,-400,-1316.52
C-455.063,-1316.52,-509.533,-1305.15,-565,-1280.595
C-1043.76,-1071.31,-1350,-603.51,-1350,-86.6023
C-1350,631.368,-767.97,1213.4,-50,1213.4
C178.198,1213.4,402.375,1153.33,600,1039.23
C971.281,824.871,1200,428.719,1200,0
C1200,-477.145,917.313,-908.957,480,-1099.82
C454.767,-1110.83,427.531,-1116.52,400,-1116.52
C289.543,-1116.52,200,-1026.97,200,-916.515
C200,-836.991,247.114,-765.022,320,-733.2115
C611.542,-605.971,800,-318.097,800,0
C800,285.812,647.521,549.914,400,692.82
C263.183,771.812,107.983,813.397,-50,813.397
C-547.056,813.397,-950,410.454,-950,-86.6023
C-950,-444.461,-737.985,-768.32,-410,-911.465"/>
<path d="M400,-916.514
C764.428,-757.464,1000,-397.621,1000,0
C1000,357.265,809.401,687.393,500,866.025
C332.779,962.571,143.09,1013.4,-50,1013.4
C-657.513,1013.4,-1150,520.911,-1150,-86.6023
C-1150,-523.985,-890.871,-919.813,-485,-1097.295
C-454.767,-1110.83,-427.531,-1116.52,-400,-1116.52
C-289.543,-1116.52,-200,-1026.97,-200,-916.515
C-200,-836.991,-247.115,-765.021,-325,-730.687
C-585.1,-616.828,-750,-364.937,-750,-86.6023
C-750,299.997,-436.599,613.397,-50,613.397
C72.8755,613.397,193.586,581.053,300,519.615
C485.64,412.436,600,214.359,600,0
C600,-331.371,331.371,-600,0,-600
C-105.322,-600,-208.788,-572.276,-300,-519.615"/>
<path d="M240,-549.91
C94.2288,-613.529,0,-757.467,0,-916.515"/>
</g>
</g>
</svg>
